<svg xmlns="http://www.w3.org/2000/svg" class="home-header__logo" viewBox="0 8.8 512 278.46"><path fill="#ff9c00" d="M213.383 50.788a70.164 70.164 0 0 1 85.078 0l17.32-21.41a97.588 97.588 0 0 0-119.88 0z"/><path fill="#4a4c4e" d="m321.234 33.868-17.16 21.65a67.838 67.838 0 0 1 12.35 83.796l-38.17-36.725-17.801-40.094v60.942l37.447 36.325a70.164 70.164 0 0 1-83.876 0l37.768-36.325V62.495l-17.801 40.094-38.17 36.485a67.838 67.838 0 0 1 12.029-83.555l-17.16-21.651a95.343 95.343 0 0 0-31.594 70.966 96.946 96.946 0 0 0 193.812 0 95.423 95.423 0 0 0-31.674-70.966zM345.772 158.479h2.646a1.283 1.283 0 0 1 .4 1.042 1.203 1.203 0 0 1-1.042 1.364l1.444 1.924h-1.283l-1.203-1.764v1.764h-.962Zm1.042.802v1.203h.722a.561.561 0 0 0 0-.481.561.561 0 0 0 0-.482h-.642zm.481 5.453a4.01 4.01 0 1 1 4.01-4.01 4.01 4.01 0 0 1-4.09 4.09zm3.288-4.01a3.288 3.288 0 1 0-3.288 3.288 3.288 3.288 0 0 0 3.208-3.208z"/><path fill="#ff9c00" d="m85.724 213.648 11.146 15.877H74.498z"/><path fill="#4a4c4e" d="m245.858 271.463 9.302-20.849 9.222 20.849h9.863l18.122-41.457h-13.552l-8.9 21.09-9.222-21.09h-9.703l-9.221 20.849-8.74-20.849h-14.675l18.203 41.457zM484.335 271.463h14.033v-41.457h-14.033V244.6h-25.419v-14.594h-14.113v41.457h14.113v-16.038h25.42zM296.777 271.463l17.24-26.702 17.08 26.702h15.878l-27.104-41.457h-10.665l-27.825 41.457zM85.083 255.265l-15.556-25.259H53.569l26.141 41.457h9.623l27.183-41.457H100.88zM335.989 240.912h18.042v30.55h14.193v-30.55h14.193l7.217-10.906H335.99zM47.475 230.728a16.76 16.76 0 0 0-4.891-.642H11.63c-7.136 0-11.627 3.609-11.627 9.382v22.613a8.58 8.58 0 0 0 4.892 8.019h.561l8.66-8.74v-20.448H40.5v19.645H21.094l-10.906 10.906h32.716c6.897 0 11.708-3.85 11.708-9.382v-21.49l-6.495-9.783ZM427.162 230.006H396.29l-1.203 1.844-8.019 11.788v18.202c0 5.533 4.811 9.382 11.627 9.382h28.306a10.505 10.505 0 0 0 11.708-9.382v-7.136h-14.354v5.613h-22.933v-19.405h22.933v4.81h14.193v-6.254c.321-5.693-4.25-9.462-11.386-9.462zM129.827 240.912h29.75v-10.906H122.93l-7.217 10.344v31.113h43.863v-10.906h-29.75v-5.212h20.127v-9.542h-20.127zM205.284 255.987c5.051 0 10.504-2.646 10.504-7.538v-9.943c0-5.212-4.09-8.5-10.665-8.5h-39.291v41.377h14.112V240.67h22.212V247.327a1.524 1.524 0 0 1-.802 0H186.36v8.018l17.401 15.557h19.325z"/><path fill="#ff9c00" d="m314.178 287.26-11.146-15.797h22.292z"/><path fill="#4a4c4e" d="M506.467 231.209h2.646a1.283 1.283 0 0 1 .401 1.042 1.203 1.203 0 0 1-1.042 1.364l1.443 1.924h-1.283l-1.203-1.764v1.764h-1.042zm1.043.802v1.203h.721a.561.561 0 0 0 0-.482.561.561 0 0 0 0-.48h-.641z"/><path fill="#4a4c4e" d="M507.99 237.464a4.01 4.01 0 1 1 4.01-4.01 4.01 4.01 0 0 1-4.01 4.01zm3.288-4.01a3.288 3.288 0 1 0-3.287 3.288 3.288 3.288 0 0 0 3.287-3.288z"/></svg>